<svg xmlns="http://www.w3.org/2000/svg" viewBox="0 0 623.47 720"><defs><style>.cls-1{fill:#278bc8;}.cls-2{fill:#39c1d5;}.cls-3{fill:#0e3960;}</style></defs><title>Studio.ml-icon-std</title><g id="Layer_2" data-name="Layer 2"><g id="Layer_1-2" data-name="Layer 1"><polygon class="cls-1" points="623.48 180 623.48 540 311.74 720 249.39 684 249.39 612 187.04 648 124.69 612 124.69 540 62.35 576 0 540 0 180 62.35 144 124.69 180 124.69 108 311.74 0 623.48 180"/><polygon class="cls-2" points="561.13 216 623.48 180 311.74 0 124.69 108 374.08 252 311.74 288 62.35 144 0 180 311.74 360 498.78 252 249.39 108 311.74 72 561.13 216"/><polygon class="cls-2" points="498.78 324 498.78 396 561.13 360 498.78 324"/><polygon class="cls-2" points="561.13 504 498.78 468 436.43 504 374.08 468 374.08 612 561.13 504"/><polygon class="cls-1" points="311.74 72 311.74 144 249.39 108 311.74 72"/><path class="cls-1" d="M561.13,216V360l-62.35,36V252l-187,108V720L623.47,540V180Zm0,288-187,108V396l62.35-36V504l124.69-72Z"/><polygon class="cls-1" points="62.35 288 62.35 576 124.69 540 124.69 324 62.35 288"/><polygon class="cls-1" points="187.04 360 187.04 648 249.39 612 249.39 396 187.04 360"/><polygon class="cls-3" points="0 180 311.74 360 311.74 720 249.39 684 249.39 396 187.04 360 187.04 648 124.69 612 124.69 324 62.35 288 62.35 576 0 540 0 180"/><polygon class="cls-3" points="374.08 252 124.69 108 124.69 180 311.74 288 374.08 252"/><polygon class="cls-3" points="436.43 504 436.43 360 374.08 396 374.08 468 436.43 504"/><polygon class="cls-3" points="311.74 72 311.74 144 498.78 252 498.78 324 561.13 360 561.13 216 311.74 72"/><polygon class="cls-3" points="561.13 432 561.13 504 498.78 468 561.13 432"/></g></g></svg>